#!OML:ASF X:\für Bonn\!DataBase\2005_08_12_Daniel\c3d\Daniel.ASF
:FULLY-SPECIFIED
:DEGREES
246
root 19.0117 1.62936 0.214839 -1760.78 260.604 201.452
lowerback 49.2098 -3.10973 4.11334
upperback 18.7902 -5.60265 -5.7277
thorax -0.264505 -3.97487 -6.0026
lowerneck 11.1164 4.502 0.73037
upperneck 10.4404 5.8452 -2.0353
head 1.52493 2.76472 -0.866351
rclavicle -2.22639e-014 8.74653e-015
rhumerus -417.769 34.7752 255.95
rradius 49.7229
rwrist 5.88457
rhand -42.4859 743.072
rfingers 7.12502
rthumb -15.3632 713.662
lclavicle -2.22639e-014 8.74653e-015
lhumerus -549.88 174.799 -481.158
lradius 42.6757
lwrist -1.29009
lhand -4.94286 -720.185
lfingers 7.12502
lthumb 20.8483 28.7147
rfemur -551.272 -175.762 555.856
rtibia 57.076
rfoot 5.07403 -14.4293
rtoes 32.4071
lfemur -87.4377 579.189 -0.969849
ltibia 92.6703
lfoot -92.3142 400.518
ltoes 28.5051
247
root 19.0021 1.64457 0.220602 -1760.09 260.531 200.21
lowerback 48.5278 -3.05706 3.91443
upperback 18.7198 -5.5793 -5.73299
thorax -0.24776 -3.94984 -5.93621
lowerneck 11.3675 4.43811 0.793445
upperneck 10.1722 5.76658 -2.02745
head 1.39891 2.73424 -0.881117
rclavicle 3.18055e-015 5.00937e-014
rhumerus -417.192 35.1941 255.849
rradius 48.7714
rwrist 5.4305
rhand -42.19 743.65
rfingers 7.12502
rthumb -15.0782 714.219
lclavicle 3.18055e-015 5.00937e-014
lhumerus -549.586 175.31 -481.193
lradius 43.6789
lwrist -1.41589
lhand -4.73716 -720.309
lfingers 7.12502
lthumb 21.0459 28.5693
rfemur -552.041 -175.996 555.665
rtibia 57.9603
rfoot 4.7246 -14.0967
rtoes 32.8035
lfemur -86.0311 578.394 -1.73418
ltibia 91.4545
lfoot -91.2535 400.383
ltoes 27.9764
248
root 18.9066 1.66289 0.232917 -1759.42 260.465 199.007
lowerback 47.8054 -2.99984 3.71027
upperback 18.6559 -5.54857 -5.71084
thorax -0.207381 -3.92247 -5.84289
lowerneck 11.6381 4.37299 0.829019
upperneck 9.84077 5.68538 -2.04304
head 1.25005 2.70249 -0.899667
rclavicle 1.51076e-014 -1.15295e-013
rhumerus -416.636 35.6268 255.818
rradius 47.8881
rwrist 5.01848
rhand -41.9633 744.365
rfingers 7.12502
rthumb -14.8598 714.918
lclavicle 1.51076e-014 -1.15295e-013
lhumerus -549.275 175.871 -481.195
lradius 44.7039
lwrist -1.49728
lhand -4.90997 -720.498
lfingers 7.12502
lthumb 20.8799 28.3983
rfemur -553.607 -176.273 555.514
rtibia 60.0127
rfoot 4.14636 -13.4735
rtoes 33.1011
lfemur -85.6218 577.365 -1.98712
ltibia 89.9828
lfoot -89.0495 403.089
ltoes 27.8942
249
root 18.7347 1.68172 0.249518 -1758.53 260.419 197.655
lowerback 46.0818 -2.92878 3.56846
upperback 19.4254 -5.47983 -5.69825
thorax -0.0757107 -3.89091 -5.84854
lowerneck 11.9666 4.29932 0.817273
upperneck 9.47026 5.58375 -1.99101
head 1.07647 2.65964 -0.890458
rclavicle -5.32743e-014 3.65764e-014
rhumerus -416.098 36.0267 255.818
rradius 47.062
rwrist 4.75616
rhand -41.8543 745.102
rfingers 7.12502
rthumb -14.7548 715.647
lclavicle -5.32743e-014 3.65764e-014
lhumerus -548.906 176.479 -481.183
lradius 45.698
lwrist -1.68895
lhand -5.35571 -720.888
lfingers 7.12502
lthumb 20.4516 28.0546
rfemur -555.924 -176.533 555.383
rtibia 63.0116
rfoot 3.52653 -12.6291
rtoes 33.2752
lfemur -86.0121 576.189 -1.83976
ltibia 88.3231
lfoot -85.6493 408.975
ltoes 27.6735
250
root 18.5035 1.69884 0.268955 -1757.55 260.361 196.235
lowerback 45.3407 -2.87138 3.34456
upperback 19.2954 -5.44187 -5.65303
thorax -0.0315978 -3.85738 -5.72164
lowerneck 12.2302 4.23731 0.724962
upperneck 9.12655 5.48869 -1.91415
head 0.91965 2.61678 -0.858627
rclavicle -6.67916e-014 1.4074e-013
rhumerus -415.549 36.4706 255.858
rradius 46.2578
rwrist 4.56176
rhand -41.9009 745.996
rfingers 7.12502
rthumb -14.7996 716.544
lclavicle -6.67916e-014 1.4074e-013
lhumerus -548.486 177.067 -481.146
lradius 46.667
lwrist -1.87256
lhand -5.98617 -721.381
lfingers 7.12502
lthumb 19.8456 27.6253
rfemur -558.783 -176.765 555.253
rtibia 66.6363
rfoot 2.99745 -11.6367
rtoes 33.1652
lfemur -87.0806 575.034 -1.30172
ltibia 86.4941
lfoot -79.9767 418.644
ltoes 26.5728
251
root 18.2422 1.71237 0.288031 -1756.32 260.362 194.609
lowerback 44.5531 -2.84535 3.17715
upperback 19.1563 -5.41205 -5.5934
thorax 0.0177105 -3.82146 -5.60636
lowerneck 12.506 4.17019 0.579637
upperneck 8.75364 5.37804 -1.76907
head 0.748982 2.56491 -0.797158
rclavicle 3.26007e-014 -1.59028e-014
rhumerus -414.998 36.8696 255.982
rradius 45.599
rwrist 4.60667
rhand -42.0118 746.732
rfingers 7.12502
rthumb -14.9065 717.288
lclavicle 3.26007e-014 -1.59028e-014
lhumerus -548.03 177.707 -481.111
lradius 47.6562
lwrist -2.10534
lhand -6.78677 -722.036
lfingers 7.12502
lthumb 19.0759 27.0486
rfemur -561.894 -176.951 555.159
rtibia 70.2582
rfoot 2.66333 -10.7827
rtoes 32.7964
lfemur -88.5165 573.961 -0.452476
ltibia 84.8163
lfoot -66.0952 431.919
ltoes 22.5906
252
root 17.9901 1.72316 0.301714 -1754.71 260.417 192.636
lowerback 43.7496 -2.83763 3.00296
upperback 18.9967 -5.40364 -5.51045
thorax 0.0560902 -3.79703 -5.45447
lowerneck 12.7543 4.09793 0.461605
upperneck 8.40715 5.26543 -1.66842
head 0.593678 2.51205 -0.753325
rclavicle -4.13472e-014 -6.67916e-014
rhumerus -414.479 37.3065 256.118
rradius 44.9769
rwrist 4.73107
rhand -42.3194 747.573
rfingers 7.12502
rthumb -15.2029 718.151
lclavicle -4.13472e-014 -6.67916e-014
lhumerus -547.598 178.369 -481.098
lradius 48.7259
lwrist -2.25383
lhand -7.59758 -722.743
lfingers 7.12502
lthumb 18.296 26.4169
rfemur -564.959 -177.114 555.076
rtibia 73.638
rfoot 2.35295 -10.065
rtoes 32.3573
lfemur -90.0055 506.959 -179.42
ltibia -83.2153
lfoot -2.95148 458.723
ltoes 14.4812
253
root 17.8619 1.74954 0.142146 -1752.67 260.515 190.283
lowerback 42.9076 -2.85094 2.83267
upperback 18.8371 -5.41706 -5.40031
thorax 0.112874 -3.78414 -5.27044
lowerneck 12.939 4.03612 0.238586
upperneck 8.04819 5.15351 -1.51055
head 0.440836 2.45678 -0.673399
rclavicle 1.82882e-014 6.83819e-014
rhumerus -414.005 37.9244 256.241
rradius 44.488
rwrist 4.82046
rhand -42.7869 748.343
rfingers 7.12502
rthumb -15.6531 718.956
lclavicle 1.82882e-014 6.83819e-014
lhumerus -547.158 178.95 -481.051
lradius 49.8757
lwrist -2.38136
lhand -8.23465 -723.455
lfingers 7.12502
lthumb 17.683 25.7613
rfemur -566.9 -177.286 555.803
rtibia 75.8913
rfoot 1.39589 -9.65529
rtoes 31.8865
lfemur 5.53614 564.24 -18.4163
ltibia -83.037
lfoot -23.8802 400.917
ltoes -22.3189
254
root 17.7074 1.76449 0.135802 -1750.44 260.642 187.754
lowerback 42.1146 -2.87824 2.67056
upperback 18.6368 -5.44157 -5.27013
thorax 0.119616 -3.7763 -5.06104
lowerneck 13.0886 3.96943 0.0462798
upperneck 7.72205 5.04054 -1.41102
head 0.306328 2.40138 -0.615515
rclavicle 1.74931e-014 1.4233e-013
rhumerus -413.594 38.6135 256.364
rradius 44.1221
rwrist 4.86667
rhand -43.3215 749.287
rfingers 7.12502
rthumb -16.1679 719.942
lclavicle 1.74931e-014 1.4233e-013
lhumerus -546.79 179.495 -480.982
lradius 51.1578
lwrist -2.50691
lhand -8.67033 -724.06
lfingers 7.12502
lthumb 17.2638 25.1928
rfemur -569.107 -177.385 555.748
rtibia 77.8847
rfoot 1.25799 -9.32785
rtoes 31.7172
lfemur 3.29758 563.661 -18.0121
ltibia -82.1749
lfoot -19.6898 406.169
ltoes -26.9891
255
root 17.6288 1.78518 0.129764 -1747.83 260.762 184.876
lowerback 41.371 -2.90825 2.49304
upperback 18.4196 -5.47471 -5.12311
thorax 0.103289 -3.7751 -4.82073
lowerneck 13.1021 3.89488 -0.201894
upperneck 7.45064 4.91186 -1.27162
head 0.208322 2.33612 -0.531784
rclavicle 3.89618e-014 -1.04958e-013
rhumerus -413.327 39.5863 256.407
rradius 44.0173
rwrist 4.5473
rhand -43.8667 750.312
rfingers 7.12502
rthumb -16.6929 721.01
lclavicle 3.89618e-014 -1.04958e-013
lhumerus -546.448 180.001 -480.9
lradius 52.5551
lwrist -2.58223
lhand -8.80211 -724.515
lfingers 7.12502
lthumb 17.1369 24.7495
rfemur -570.689 -177.46 555.599
rtibia 79.0005
rfoot 1.30025 -9.15995
rtoes 31.5268
lfemur -2.10224 743.129 -17.8204
ltibia 81.875
lfoot -16.2902 490.036
ltoes -29.4135
256
root 17.6261 1.81512 0.124863 -1745.03 260.845 181.842
lowerback 40.6906 -2.93847 2.28183
upperback 18.164 -5.5204 -4.97797
thorax 0.0334154 -3.78207 -4.55602
lowerneck 13.0079 3.82197 -0.431016
upperneck 7.24013 4.79139 -1.16484
head 0.148209 2.27517 -0.458304
rclavicle -2.70347e-014 1.04561e-013
rhumerus -413.155 40.7031 256.426
rradius 44.1441
rwrist 3.92593
rhand -44.3545 751.552
rfingers 7.12502
rthumb -17.1625 722.29
lclavicle -2.70347e-014 1.04561e-013
lhumerus -546.099 180.476 -480.834
lradius 54.0083
lwrist -2.54571
lhand -8.73511 -724.81
lfingers 7.12502
lthumb 17.2014 24.4489
rfemur -571.683 -177.505 555.331
rtibia 79.4379
rfoot 1.41205 -9.01212
rtoes 31.3992
lfemur -2.03733 742.592 -17.9924
ltibia 81.8621
lfoot -12.4485 487.295
ltoes -30.9866
257
root 17.673 1.85041 0.121331 -1742.27 260.878 178.835
lowerback 40.102 -2.96211 2.06849
upperback 17.8823 -5.55908 -4.85426
thorax -0.0880768 -3.78446 -4.30991
lowerneck 12.7763 3.73943 -0.632277
upperneck 7.11371 4.66611 -1.08294
head 0.137991 2.21184 -0.392848
rclavicle 3.89618e-014 4.96962e-014
rhumerus -412.974 41.664 256.612
rradius 44.6292
rwrist 3.27221
rhand -44.6655 752.822
rfingers 7.12502
rthumb -17.4618 723.586
lclavicle 3.89618e-014 4.96962e-014
lhumerus -545.693 180.967 -480.797
lradius 55.4339
lwrist -2.41056
lhand -8.49704 -725.026
lfingers 7.12502
lthumb 17.4305 24.2126
rfemur -572.243 -177.54 554.985
rtibia 79.315
rfoot 1.6834 -8.90698
rtoes 31.179
lfemur -2.50747 742.114 -18.2974
ltibia 82.2227
lfoot -7.79246 485.166
ltoes -32.1783
258
root 17.7441 1.88602 0.120218 -1739.52 260.904 175.9
lowerback 39.5626 -3.00067 1.87306
upperback 17.5646 -5.60896 -4.71952
thorax -0.260114 -3.79039 -4.05318
lowerneck 12.4328 3.65787 -0.896014
upperneck 7.01637 4.53826 -0.986767
head 0.153477 2.14573 -0.310507
rclavicle 3.33958e-014 -3.97569e-015
rhumerus -412.591 42.2925 257.191
rradius 45.3905
rwrist 2.76054
rhand -44.6722 754.178
rfingers 7.12502
rthumb -17.4682 724.943
lclavicle 3.33958e-014 -3.97569e-015
lhumerus -545.264 181.394 -480.751
lradius 56.8639
lwrist -2.16685
lhand -8.15673 -725.181
lfingers 7.12502
lthumb 17.758 24.0284
rfemur -572.641 -177.542 554.634
rtibia 78.8693
rfoot 2.04885 -8.83995
rtoes 30.843
lfemur -3.35481 741.656 -18.6643
ltibia 82.8314
lfoot -2.68057 483.7
ltoes -33.0212
259
root 17.8221 1.9231 0.122157 -1737.43 260.934 173.606
lowerback 39.1429 -3.02709 1.7351
upperback 17.2285 -5.62536 -4.58436
thorax -0.485419 -3.77622 -3.83049
lowerneck 12.0295 3.57105 -1.11811
upperneck 6.94416 4.41289 -0.937359
head 0.188683 2.08208 -0.248359
rclavicle 7.15625e-015 1.23246e-013
rhumerus -411.992 42.5944 258.09
rradius 46.3368
rwrist 2.40999
rhand -44.4441 755.416
rfingers 7.12502
rthumb -17.2487 726.162
lclavicle 7.15625e-015 1.23246e-013
lhumerus -544.775 181.838 -480.715
lradius 58.2432
lwrist -1.79934
lhand -7.91551 -725.284
lfingers 7.12502
lthumb 17.9901 23.9039
rfemur -572.918 -177.579 554.323
rtibia 78.2968
rfoot 2.43699 -8.72746
rtoes 30.5809
lfemur -4.41493 741.269 -19.0529
ltibia 83.4801
lfoot 1.9421 482.952
ltoes -33.1474
260
root 17.8833 1.95759 0.126961 -1735.54 260.879 171.511
lowerback 38.8363 -3.04334 1.56246
upperback 16.8511 -5.64405 -4.48449
thorax -0.79035 -3.76302 -3.61803
lowerneck 11.5821 3.48812 -1.34552
upperneck 6.89011 4.29539 -0.911429
head 0.237244 2.02212 -0.192337
rclavicle 4.53229e-014 3.18055e-015
rhumerus -411.185 42.5671 259.272
rradius 47.4184
rwrist 2.30259
rhand -44.0371 756.486
rfingers 7.12502
rthumb -16.8569 727.198
lclavicle 4.53229e-014 3.18055e-015
lhumerus -544.318 182.273 -480.697
lradius 59.6607
lwrist -1.3609
lhand -7.82968 -725.384
lfingers 7.12502
lthumb 18.0727 23.7959
rfemur -573.284 -177.658 553.94
rtibia 77.7996
rfoot 2.75536 -8.66879
rtoes 30.6262
lfemur -5.37321 740.938 -19.4802
ltibia 84.0908
lfoot 5.71328 482.548
ltoes -33.1076
